<svg id="visual" viewBox="0 0 900 600" width="900" height="600" xmlns="http://www.w3.org/2000/svg" xmlns:xlink="http://www.w3.org/1999/xlink" version="1.1"><g stroke-width="1" stroke-linejoin="bevel"><path d="M454 269.1L393 339.9L450 338.9Z" fill="#020202" stroke="#250f00"></path><path d="M454 269.1L353 230.1L393 339.9Z" fill="#060606" stroke="#250f00"></path><path d="M393 339.9L467 402.6L450 338.9Z" fill="#000000" stroke="#250f00"></path><path d="M450 338.9L561 372.9L454 269.1Z" fill="#010101" stroke="#250f00"></path><path d="M456 163.4L352 177.4L353 230.1Z" fill="#030303" stroke="#250f00"></path><path d="M578 238.1L456 163.4L454 269.1Z" fill="#020202" stroke="#250f00"></path><path d="M454 269.1L456 163.4L353 230.1Z" fill="#070707" stroke="#250f00"></path><path d="M270 333.9L336 418.6L393 339.9Z" fill="#060606" stroke="#250f00"></path><path d="M393 339.9L336 418.6L467 402.6Z" fill="#040404" stroke="#250f00"></path><path d="M270 333.9L393 339.9L353 230.1Z" fill="#010101" stroke="#250f00"></path><path d="M271 208.4L270 333.9L353 230.1Z" fill="#030303" stroke="#250f00"></path><path d="M467 402.6L561 372.9L450 338.9Z" fill="#000000" stroke="#250f00"></path><path d="M561 372.9L578 238.1L454 269.1Z" fill="#020202" stroke="#250f00"></path><path d="M352 177.4L271 208.4L353 230.1Z" fill="#000000" stroke="#250f00"></path><path d="M270 333.9L270 415.6L336 418.6Z" fill="#080808" stroke="#250f00"></path><path d="M271 208.4L239 226.1L270 333.9Z" fill="#010101" stroke="#250f00"></path><path d="M270 333.9L168 354.9L270 415.6Z" fill="#010101" stroke="#250f00"></path><path d="M551 486.3L555 455.6L467 402.6Z" fill="#080808" stroke="#250f00"></path><path d="M467 402.6L555 455.6L561 372.9Z" fill="#030303" stroke="#250f00"></path><path d="M561 372.9L662 345.9L578 238.1Z" fill="#000000" stroke="#250f00"></path><path d="M411 550.3L467 402.6L336 418.6Z" fill="#070707" stroke="#250f00"></path><path d="M555 455.6L596 424.6L561 372.9Z" fill="#070707" stroke="#250f00"></path><path d="M578 238.1L562 134.4L456 163.4Z" fill="#010101" stroke="#250f00"></path><path d="M456 163.4L367 78.7L352 177.4Z" fill="#030303" stroke="#250f00"></path><path d="M270 415.6L291 483.3L336 418.6Z" fill="#020202" stroke="#250f00"></path><path d="M411 550.3L551 486.3L467 402.6Z" fill="#070707" stroke="#250f00"></path><path d="M555 455.6L652 494.3L596 424.6Z" fill="#020202" stroke="#250f00"></path><path d="M562 134.4L558 122.7L456 163.4Z" fill="#060606" stroke="#250f00"></path><path d="M428 47.7L367 78.7L456 163.4Z" fill="#060606" stroke="#250f00"></path><path d="M352 177.4L302 66.7L271 208.4Z" fill="#050505" stroke="#250f00"></path><path d="M271 208.4L214 93.7L239 226.1Z" fill="#040404" stroke="#250f00"></path><path d="M652 494.3L662 345.9L596 424.6Z" fill="#060606" stroke="#250f00"></path><path d="M596 424.6L662 345.9L561 372.9Z" fill="#020202" stroke="#250f00"></path><path d="M578 238.1L643 198.4L562 134.4Z" fill="#040404" stroke="#250f00"></path><path d="M562 134.4L627 99.7L558 122.7Z" fill="#030303" stroke="#250f00"></path><path d="M667 259.1L643 198.4L578 238.1Z" fill="#060606" stroke="#250f00"></path><path d="M291 483.3L366 543.3L336 418.6Z" fill="#030303" stroke="#250f00"></path><path d="M366 543.3L411 550.3L336 418.6Z" fill="#040404" stroke="#250f00"></path><path d="M662 345.9L667 259.1L578 238.1Z" fill="#030303" stroke="#250f00"></path><path d="M558 122.7L428 47.7L456 163.4Z" fill="#020202" stroke="#250f00"></path><path d="M239 226.1L168 354.9L270 333.9Z" fill="#030303" stroke="#250f00"></path><path d="M270 415.6L179 431.6L291 483.3Z" fill="#060606" stroke="#250f00"></path><path d="M321 0L302 66.7L367 78.7Z" fill="#060606" stroke="#250f00"></path><path d="M367 78.7L302 66.7L352 177.4Z" fill="#010101" stroke="#250f00"></path><path d="M239 226.1L141 261.1L168 354.9Z" fill="#000000" stroke="#250f00"></path><path d="M168 354.9L179 431.6L270 415.6Z" fill="#020202" stroke="#250f00"></path><path d="M291 483.3L330 600L366 543.3Z" fill="#020202" stroke="#250f00"></path><path d="M153 161.4L141 261.1L239 226.1Z" fill="#070707" stroke="#250f00"></path><path d="M168 354.9L90 400.6L179 431.6Z" fill="#070707" stroke="#250f00"></path><path d="M643 198.4L627 99.7L562 134.4Z" fill="#010101" stroke="#250f00"></path><path d="M548 0L455 0L428 47.7Z" fill="#020202" stroke="#250f00"></path><path d="M684 169.4L627 99.7L643 198.4Z" fill="#040404" stroke="#250f00"></path><path d="M302 66.7L214 93.7L271 208.4Z" fill="#040404" stroke="#250f00"></path><path d="M723 260.1L684 169.4L667 259.1Z" fill="#080808" stroke="#250f00"></path><path d="M667 259.1L684 169.4L643 198.4Z" fill="#070707" stroke="#250f00"></path><path d="M578 600L652 494.3L551 486.3Z" fill="#030303" stroke="#250f00"></path><path d="M551 486.3L652 494.3L555 455.6Z" fill="#070707" stroke="#250f00"></path><path d="M728 334.9L723 260.1L667 259.1Z" fill="#050505" stroke="#250f00"></path><path d="M330 600L467 600L411 550.3Z" fill="#000000" stroke="#250f00"></path><path d="M411 550.3L467 600L551 486.3Z" fill="#010101" stroke="#250f00"></path><path d="M214 93.7L153 161.4L239 226.1Z" fill="#010101" stroke="#250f00"></path><path d="M548 0L428 47.7L558 122.7Z" fill="#020202" stroke="#250f00"></path><path d="M428 47.7L321 0L367 78.7Z" fill="#080808" stroke="#250f00"></path><path d="M302 66.7L258 0L214 93.7Z" fill="#010101" stroke="#250f00"></path><path d="M728 334.9L667 259.1L662 345.9Z" fill="#000000" stroke="#250f00"></path><path d="M747 454.6L728 334.9L662 345.9Z" fill="#060606" stroke="#250f00"></path><path d="M267 600L330 600L291 483.3Z" fill="#070707" stroke="#250f00"></path><path d="M366 543.3L330 600L411 550.3Z" fill="#060606" stroke="#250f00"></path><path d="M455 0L321 0L428 47.7Z" fill="#060606" stroke="#250f00"></path><path d="M179 431.6L192 529.3L291 483.3Z" fill="#040404" stroke="#250f00"></path><path d="M126 548.3L192 529.3L179 431.6Z" fill="#060606" stroke="#250f00"></path><path d="M641 0L548 0L627 99.7Z" fill="#020202" stroke="#250f00"></path><path d="M627 99.7L548 0L558 122.7Z" fill="#030303" stroke="#250f00"></path><path d="M62 167.4L87 280.1L141 261.1Z" fill="#060606" stroke="#250f00"></path><path d="M141 261.1L87 280.1L168 354.9Z" fill="#030303" stroke="#250f00"></path><path d="M192 529.3L267 600L291 483.3Z" fill="#040404" stroke="#250f00"></path><path d="M467 600L578 600L551 486.3Z" fill="#060606" stroke="#250f00"></path><path d="M87 280.1L85 348.9L168 354.9Z" fill="#010101" stroke="#250f00"></path><path d="M638 600L694 504.3L652 494.3Z" fill="#020202" stroke="#250f00"></path><path d="M652 494.3L747 454.6L662 345.9Z" fill="#040404" stroke="#250f00"></path><path d="M321 0L258 0L302 66.7Z" fill="#060606" stroke="#250f00"></path><path d="M214 93.7L85 77.7L153 161.4Z" fill="#010101" stroke="#250f00"></path><path d="M85 348.9L90 400.6L168 354.9Z" fill="#050505" stroke="#250f00"></path><path d="M723 260.1L784 179.4L684 169.4Z" fill="#020202" stroke="#250f00"></path><path d="M726 0L641 0L627 99.7Z" fill="#030303" stroke="#250f00"></path><path d="M728 334.9L773 275.1L723 260.1Z" fill="#020202" stroke="#250f00"></path><path d="M843 315.9L773 275.1L728 334.9Z" fill="#020202" stroke="#250f00"></path><path d="M694 504.3L747 454.6L652 494.3Z" fill="#080808" stroke="#250f00"></path><path d="M578 600L638 600L652 494.3Z" fill="#060606" stroke="#250f00"></path><path d="M694 504.3L778 600L747 454.6Z" fill="#060606" stroke="#250f00"></path><path d="M126 548.3L200 600L192 529.3Z" fill="#020202" stroke="#250f00"></path><path d="M192 529.3L200 600L267 600Z" fill="#080808" stroke="#250f00"></path><path d="M758 99.7L627 99.7L684 169.4Z" fill="#060606" stroke="#250f00"></path><path d="M258 0L199 0L214 93.7Z" fill="#040404" stroke="#250f00"></path><path d="M153 161.4L62 167.4L141 261.1Z" fill="#060606" stroke="#250f00"></path><path d="M85 77.7L62 167.4L153 161.4Z" fill="#050505" stroke="#250f00"></path><path d="M87 280.1L0 369.9L85 348.9Z" fill="#050505" stroke="#250f00"></path><path d="M85 348.9L0 369.9L90 400.6Z" fill="#020202" stroke="#250f00"></path><path d="M773 275.1L784 179.4L723 260.1Z" fill="#010101" stroke="#250f00"></path><path d="M90 400.6L126 548.3L179 431.6Z" fill="#030303" stroke="#250f00"></path><path d="M784 179.4L758 99.7L684 169.4Z" fill="#020202" stroke="#250f00"></path><path d="M127 0L85 77.7L214 93.7Z" fill="#060606" stroke="#250f00"></path><path d="M199 0L127 0L214 93.7Z" fill="#020202" stroke="#250f00"></path><path d="M846 447.6L843 315.9L728 334.9Z" fill="#070707" stroke="#250f00"></path><path d="M773 275.1L900 276.1L784 179.4Z" fill="#010101" stroke="#250f00"></path><path d="M784 179.4L839 69.7L758 99.7Z" fill="#070707" stroke="#250f00"></path><path d="M0 201.4L0 246.1L62 167.4Z" fill="#050505" stroke="#250f00"></path><path d="M62 167.4L0 246.1L87 280.1Z" fill="#070707" stroke="#250f00"></path><path d="M90 400.6L0 502.3L126 548.3Z" fill="#000000" stroke="#250f00"></path><path d="M0 246.1L0 369.9L87 280.1Z" fill="#010101" stroke="#250f00"></path><path d="M0 600L112 600L126 548.3Z" fill="#020202" stroke="#250f00"></path><path d="M126 548.3L112 600L200 600Z" fill="#040404" stroke="#250f00"></path><path d="M758 99.7L726 0L627 99.7Z" fill="#080808" stroke="#250f00"></path><path d="M797 0L726 0L758 99.7Z" fill="#030303" stroke="#250f00"></path><path d="M0 52.7L0 201.4L62 167.4Z" fill="#010101" stroke="#250f00"></path><path d="M0 52.7L62 167.4L85 77.7Z" fill="#060606" stroke="#250f00"></path><path d="M638 600L740 600L694 504.3Z" fill="#030303" stroke="#250f00"></path><path d="M747 454.6L846 447.6L728 334.9Z" fill="#050505" stroke="#250f00"></path><path d="M0 369.9L0 444.6L90 400.6Z" fill="#000000" stroke="#250f00"></path><path d="M845 534.3L846 447.6L747 454.6Z" fill="#060606" stroke="#250f00"></path><path d="M740 600L778 600L694 504.3Z" fill="#050505" stroke="#250f00"></path><path d="M0 444.6L0 502.3L90 400.6Z" fill="#060606" stroke="#250f00"></path><path d="M900 276.1L773 275.1L843 315.9Z" fill="#070707" stroke="#250f00"></path><path d="M900 143.4L839 69.7L784 179.4Z" fill="#060606" stroke="#250f00"></path><path d="M900 418.6L900 325.9L843 315.9Z" fill="#060606" stroke="#250f00"></path><path d="M900 325.9L900 276.1L843 315.9Z" fill="#030303" stroke="#250f00"></path><path d="M839 69.7L797 0L758 99.7Z" fill="#060606" stroke="#250f00"></path><path d="M846 447.6L900 418.6L843 315.9Z" fill="#030303" stroke="#250f00"></path><path d="M778 600L845 534.3L747 454.6Z" fill="#000000" stroke="#250f00"></path><path d="M0 0L0 52.7L85 77.7Z" fill="#080808" stroke="#250f00"></path><path d="M900 520.3L900 418.6L846 447.6Z" fill="#060606" stroke="#250f00"></path><path d="M900 276.1L900 143.4L784 179.4Z" fill="#060606" stroke="#250f00"></path><path d="M839 69.7L900 0L797 0Z" fill="#020202" stroke="#250f00"></path><path d="M0 502.3L0 600L126 548.3Z" fill="#060606" stroke="#250f00"></path><path d="M127 0L0 0L85 77.7Z" fill="#080808" stroke="#250f00"></path><path d="M900 600L900 520.3L845 534.3Z" fill="#020202" stroke="#250f00"></path><path d="M845 534.3L900 520.3L846 447.6Z" fill="#070707" stroke="#250f00"></path><path d="M900 143.4L900 64.7L839 69.7Z" fill="#010101" stroke="#250f00"></path><path d="M778 600L900 600L845 534.3Z" fill="#020202" stroke="#250f00"></path><path d="M900 64.7L900 0L839 69.7Z" fill="#070707" stroke="#250f00"></path></g></svg>